<svg width="200" height="200" viewBox="0 0 200 200" fill="none" xmlns="http://www.w3.org/2000/svg">
  <!-- Background circle -->
  <circle cx="100" cy="100" r="90" fill="#10b981" opacity="0.1"/>
  
  <!-- Central hub -->
  <circle cx="100" cy="100" r="25" fill="#10b981" opacity="0.3"/>
  <circle cx="100" cy="100" r="15" fill="#10b981"/>
  
  <!-- Plugin nodes -->
  <circle cx="100" cy="50" r="12" fill="#1afff4"/>
  <circle cx="150" cy="100" r="12" fill="#206eff"/>
  <circle cx="100" cy="150" r="12" fill="#f59e0b"/>
  <circle cx="50" cy="100" r="12" fill="#ec4899"/>
  
  <!-- Connection lines -->
  <line x1="100" y1="85" x2="100" y2="62" stroke="#10b981" stroke-width="2"/>
  <line x1="115" y1="100" x2="138" y2="100" stroke="#10b981" stroke-width="2"/>
  <line x1="100" y1="115" x2="100" y2="138" stroke="#10b981" stroke-width="2"/>
  <line x1="85" y1="100" x2="62" y2="100" stroke="#10b981" stroke-width="2"/>
  
  <!-- Diagonal connections -->
  <line x1="115" y1="85" x2="135" y2="65" stroke="#10b981" stroke-width="1.5" opacity="0.5"/>
  <line x1="115" y1="115" x2="135" y2="135" stroke="#10b981" stroke-width="1.5" opacity="0.5"/>
  <line x1="85" y1="115" x2="65" y2="135" stroke="#10b981" stroke-width="1.5" opacity="0.5"/>
  <line x1="85" y1="85" x2="65" y2="65" stroke="#10b981" stroke-width="1.5" opacity="0.5"/>
  
  <!-- Corner plugin nodes -->
  <circle cx="140" cy="60" r="8" fill="#10b981" opacity="0.6"/>
  <circle cx="140" cy="140" r="8" fill="#10b981" opacity="0.6"/>
  <circle cx="60" cy="140" r="8" fill="#10b981" opacity="0.6"/>
  <circle cx="60" cy="60" r="8" fill="#10b981" opacity="0.6"/>
</svg>
